<svg xmlns="http://www.w3.org/2000/svg" width="320" height="200" viewBox="0 0 320 200" role="img" aria-label="등불마녀 오솔길 미니맵">
  <rect width="320" height="200" rx="16" fill="#211b2b"/>
  <rect x="7" y="7" width="306" height="186" rx="12" fill="#8b5cc0" fill-opacity=".08" stroke="#8b5cc0" stroke-opacity=".28"/>
  <path d="M 40 0 V 200 M 0 25 H 320" stroke="#523d70" stroke-opacity=".18" stroke-width="1"/>
  <path d="M 80 0 V 200 M 0 50 H 320" stroke="#523d70" stroke-opacity=".18" stroke-width="1"/>
  <path d="M 120 0 V 200 M 0 75 H 320" stroke="#523d70" stroke-opacity=".18" stroke-width="1"/>
  <path d="M 160 0 V 200 M 0 100 H 320" stroke="#523d70" stroke-opacity=".18" stroke-width="1"/>
  <path d="M 200 0 V 200 M 0 125 H 320" stroke="#523d70" stroke-opacity=".18" stroke-width="1"/>
  <path d="M 240 0 V 200 M 0 150 H 320" stroke="#523d70" stroke-opacity=".18" stroke-width="1"/>
  <path d="M 280 0 V 200 M 0 175 H 320" stroke="#523d70" stroke-opacity=".18" stroke-width="1"/>
  <circle cx="76.1" cy="71.1" r="6.1" fill="#9968b8" fill-opacity=".82" stroke="#0b0e16" stroke-width="1.4"/>
  <circle cx="228.1" cy="109.8" r="5.8" fill="#8dbc4a" fill-opacity=".82" stroke="#0b0e16" stroke-width="1.4"/>
  <circle cx="160.6" cy="67.4" r="5.2" fill="#5fc2d8" fill-opacity=".82" stroke="#0b0e16" stroke-width="1.4"/>
  <circle cx="255.5" cy="142.4" r="5.4" fill="#d5d8de" fill-opacity=".82" stroke="#0b0e16" stroke-width="1.4"/>
  <path d="M 42.6 159 L 42.6 45.9 L 123.5 45.9 L 123.5 124.6 L 191.6 124.6 L 191.6 53.3 L 270.1 53.3 L 270.1 159" fill="none" stroke="#05070b" stroke-opacity=".65" stroke-width="17" stroke-linecap="round" stroke-linejoin="round"/>
  <path d="M 42.6 159 L 42.6 45.9 L 123.5 45.9 L 123.5 124.6 L 191.6 124.6 L 191.6 53.3 L 270.1 53.3 L 270.1 159" fill="none" stroke="#d7c08a" stroke-width="10" stroke-linecap="round" stroke-linejoin="round"/>
  <path d="M 42.6 159 L 42.6 45.9 L 123.5 45.9 L 123.5 124.6 L 191.6 124.6 L 191.6 53.3 L 270.1 53.3 L 270.1 159" fill="none" stroke="#fff1b8" stroke-opacity=".52" stroke-width="3" stroke-linecap="round" stroke-linejoin="round"/>
  <circle cx="42.6" cy="159" r="4.2" fill="#f8f3d0" fill-opacity=".95"/>
  <circle cx="42.6" cy="45.9" r="2.7" fill="#f8f3d0" fill-opacity=".55"/>
  <circle cx="123.5" cy="45.9" r="2.7" fill="#f8f3d0" fill-opacity=".55"/>
  <circle cx="123.5" cy="124.6" r="2.7" fill="#f8f3d0" fill-opacity=".55"/>
  <circle cx="191.6" cy="124.6" r="2.7" fill="#f8f3d0" fill-opacity=".55"/>
  <circle cx="191.6" cy="53.3" r="2.7" fill="#f8f3d0" fill-opacity=".55"/>
  <circle cx="270.1" cy="53.3" r="2.7" fill="#f8f3d0" fill-opacity=".55"/>
  <circle cx="270.1" cy="159" r="4.2" fill="#f8f3d0" fill-opacity=".95"/>
  <circle cx="42.6" cy="159" r="6.2" fill="#6ee0a0" stroke="#0b0e16" stroke-width="1.5"/>
  <circle cx="270.1" cy="159" r="6.2" fill="#e85c66" stroke="#0b0e16" stroke-width="1.5"/>
  <text x="14" y="184" fill="#f3f6ff" font-family="Arial, sans-serif" font-size="13" font-weight="700">4. 등불마녀 오솔길</text>
</svg>
