<svg xmlns="http://www.w3.org/2000/svg" width="320" height="200" viewBox="0 0 320 200" role="img" aria-label="고대 저주나무 미니맵">
  <rect width="320" height="200" rx="16" fill="#211b2b"/>
  <rect x="7" y="7" width="306" height="186" rx="12" fill="#8b5cc0" fill-opacity=".08" stroke="#8b5cc0" stroke-opacity=".28"/>
  <path d="M 40 0 V 200 M 0 25 H 320" stroke="#523d70" stroke-opacity=".18" stroke-width="1"/>
  <path d="M 80 0 V 200 M 0 50 H 320" stroke="#523d70" stroke-opacity=".18" stroke-width="1"/>
  <path d="M 120 0 V 200 M 0 75 H 320" stroke="#523d70" stroke-opacity=".18" stroke-width="1"/>
  <path d="M 160 0 V 200 M 0 100 H 320" stroke="#523d70" stroke-opacity=".18" stroke-width="1"/>
  <path d="M 200 0 V 200 M 0 125 H 320" stroke="#523d70" stroke-opacity=".18" stroke-width="1"/>
  <path d="M 240 0 V 200 M 0 150 H 320" stroke="#523d70" stroke-opacity=".18" stroke-width="1"/>
  <path d="M 280 0 V 200 M 0 175 H 320" stroke="#523d70" stroke-opacity=".18" stroke-width="1"/>
  <circle cx="136.3" cy="60.7" r="6.1" fill="#91d062" fill-opacity=".82" stroke="#0b0e16" stroke-width="1.4"/>
  <circle cx="49.9" cy="133.8" r="5.5" fill="#b48a54" fill-opacity=".82" stroke="#0b0e16" stroke-width="1.4"/>
  <circle cx="226.3" cy="90.8" r="4.6" fill="#60d0c8" fill-opacity=".82" stroke="#0b0e16" stroke-width="1.4"/>
  <circle cx="89.4" cy="63.1" r="5.2" fill="#d3ca8a" fill-opacity=".82" stroke="#0b0e16" stroke-width="1.4"/>
  <circle cx="187.4" cy="139.9" r="5.4" fill="#5fc2d8" fill-opacity=".82" stroke="#0b0e16" stroke-width="1.4"/>
  <path d="M 42 45.3 L 278 45.3 L 278 154.7 L 42 154.7 L 42 71.7 L 245.2 71.7 L 245.2 128.3 L 79.1 128.3 L 79.1 100 L 200.1 100" fill="none" stroke="#05070b" stroke-opacity=".65" stroke-width="17" stroke-linecap="round" stroke-linejoin="round"/>
  <path d="M 42 45.3 L 278 45.3 L 278 154.7 L 42 154.7 L 42 71.7 L 245.2 71.7 L 245.2 128.3 L 79.1 128.3 L 79.1 100 L 200.1 100" fill="none" stroke="#d7c08a" stroke-width="10" stroke-linecap="round" stroke-linejoin="round"/>
  <path d="M 42 45.3 L 278 45.3 L 278 154.7 L 42 154.7 L 42 71.7 L 245.2 71.7 L 245.2 128.3 L 79.1 128.3 L 79.1 100 L 200.1 100" fill="none" stroke="#fff1b8" stroke-opacity=".52" stroke-width="3" stroke-linecap="round" stroke-linejoin="round"/>
  <circle cx="42" cy="45.3" r="4.2" fill="#f8f3d0" fill-opacity=".95"/>
  <circle cx="278" cy="45.3" r="2.7" fill="#f8f3d0" fill-opacity=".55"/>
  <circle cx="278" cy="154.7" r="2.7" fill="#f8f3d0" fill-opacity=".55"/>
  <circle cx="42" cy="154.7" r="2.7" fill="#f8f3d0" fill-opacity=".55"/>
  <circle cx="42" cy="71.7" r="2.7" fill="#f8f3d0" fill-opacity=".55"/>
  <circle cx="245.2" cy="71.7" r="2.7" fill="#f8f3d0" fill-opacity=".55"/>
  <circle cx="245.2" cy="128.3" r="2.7" fill="#f8f3d0" fill-opacity=".55"/>
  <circle cx="79.1" cy="128.3" r="2.7" fill="#f8f3d0" fill-opacity=".55"/>
  <circle cx="79.1" cy="100" r="2.7" fill="#f8f3d0" fill-opacity=".55"/>
  <circle cx="200.1" cy="100" r="4.2" fill="#f8f3d0" fill-opacity=".95"/>
  <circle cx="42" cy="45.3" r="6.2" fill="#6ee0a0" stroke="#0b0e16" stroke-width="1.5"/>
  <circle cx="200.1" cy="100" r="6.2" fill="#e85c66" stroke="#0b0e16" stroke-width="1.5"/>
  <text x="14" y="184" fill="#f3f6ff" font-family="Arial, sans-serif" font-size="13" font-weight="700">15. 고대 저주나무</text>
</svg>
