<svg xmlns="http://www.w3.org/2000/svg" width="320" height="200" viewBox="0 0 320 200" role="img" aria-label="저주받은 과수원 미니맵">
  <rect width="320" height="200" rx="16" fill="#211b2b"/>
  <rect x="7" y="7" width="306" height="186" rx="12" fill="#8b5cc0" fill-opacity=".08" stroke="#8b5cc0" stroke-opacity=".28"/>
  <path d="M 40 0 V 200 M 0 25 H 320" stroke="#523d70" stroke-opacity=".18" stroke-width="1"/>
  <path d="M 80 0 V 200 M 0 50 H 320" stroke="#523d70" stroke-opacity=".18" stroke-width="1"/>
  <path d="M 120 0 V 200 M 0 75 H 320" stroke="#523d70" stroke-opacity=".18" stroke-width="1"/>
  <path d="M 160 0 V 200 M 0 100 H 320" stroke="#523d70" stroke-opacity=".18" stroke-width="1"/>
  <path d="M 200 0 V 200 M 0 125 H 320" stroke="#523d70" stroke-opacity=".18" stroke-width="1"/>
  <path d="M 240 0 V 200 M 0 150 H 320" stroke="#523d70" stroke-opacity=".18" stroke-width="1"/>
  <path d="M 280 0 V 200 M 0 175 H 320" stroke="#523d70" stroke-opacity=".18" stroke-width="1"/>
  <circle cx="143" cy="73.6" r="4.8" fill="#91d062" fill-opacity=".82" stroke="#0b0e16" stroke-width="1.4"/>
  <circle cx="63.3" cy="137.5" r="5.8" fill="#6e9445" fill-opacity=".82" stroke="#0b0e16" stroke-width="1.4"/>
  <circle cx="233" cy="68.7" r="4.2" fill="#6d5a45" fill-opacity=".82" stroke="#0b0e16" stroke-width="1.4"/>
  <circle cx="203.8" cy="128.9" r="4.8" fill="#7f4aa5" fill-opacity=".82" stroke="#0b0e16" stroke-width="1.4"/>
  <path d="M 41.4 101.8 L 80.9 47.2 L 138.7 47.2 L 175.8 101.8 L 138.7 156.5 L 80.9 156.5 L 41.4 101.8 L 278.6 101.8 L 239.1 47.2 L 187.4 47.2 L 175.8 101.8 L 187.4 156.5 L 239.1 156.5" fill="none" stroke="#05070b" stroke-opacity=".65" stroke-width="17" stroke-linecap="round" stroke-linejoin="round"/>
  <path d="M 41.4 101.8 L 80.9 47.2 L 138.7 47.2 L 175.8 101.8 L 138.7 156.5 L 80.9 156.5 L 41.4 101.8 L 278.6 101.8 L 239.1 47.2 L 187.4 47.2 L 175.8 101.8 L 187.4 156.5 L 239.1 156.5" fill="none" stroke="#d7c08a" stroke-width="10" stroke-linecap="round" stroke-linejoin="round"/>
  <path d="M 41.4 101.8 L 80.9 47.2 L 138.7 47.2 L 175.8 101.8 L 138.7 156.5 L 80.9 156.5 L 41.4 101.8 L 278.6 101.8 L 239.1 47.2 L 187.4 47.2 L 175.8 101.8 L 187.4 156.5 L 239.1 156.5" fill="none" stroke="#fff1b8" stroke-opacity=".52" stroke-width="3" stroke-linecap="round" stroke-linejoin="round"/>
  <circle cx="41.4" cy="101.8" r="4.2" fill="#f8f3d0" fill-opacity=".95"/>
  <circle cx="80.9" cy="47.2" r="2.7" fill="#f8f3d0" fill-opacity=".55"/>
  <circle cx="138.7" cy="47.2" r="2.7" fill="#f8f3d0" fill-opacity=".55"/>
  <circle cx="175.8" cy="101.8" r="2.7" fill="#f8f3d0" fill-opacity=".55"/>
  <circle cx="138.7" cy="156.5" r="2.7" fill="#f8f3d0" fill-opacity=".55"/>
  <circle cx="80.9" cy="156.5" r="2.7" fill="#f8f3d0" fill-opacity=".55"/>
  <circle cx="41.4" cy="101.8" r="2.7" fill="#f8f3d0" fill-opacity=".55"/>
  <circle cx="278.6" cy="101.8" r="2.7" fill="#f8f3d0" fill-opacity=".55"/>
  <circle cx="239.1" cy="47.2" r="2.7" fill="#f8f3d0" fill-opacity=".55"/>
  <circle cx="187.4" cy="47.2" r="2.7" fill="#f8f3d0" fill-opacity=".55"/>
  <circle cx="175.8" cy="101.8" r="2.7" fill="#f8f3d0" fill-opacity=".55"/>
  <circle cx="187.4" cy="156.5" r="2.7" fill="#f8f3d0" fill-opacity=".55"/>
  <circle cx="239.1" cy="156.5" r="4.2" fill="#f8f3d0" fill-opacity=".95"/>
  <circle cx="41.4" cy="101.8" r="6.2" fill="#6ee0a0" stroke="#0b0e16" stroke-width="1.5"/>
  <circle cx="239.1" cy="156.5" r="6.2" fill="#e85c66" stroke="#0b0e16" stroke-width="1.5"/>
  <text x="14" y="184" fill="#f3f6ff" font-family="Arial, sans-serif" font-size="13" font-weight="700">11. 저주받은 과수원</text>
</svg>
