<svg xmlns="http://www.w3.org/2000/svg" width="320" height="200" viewBox="0 0 320 200" role="img" aria-label="썩은 갈림길 미니맵">
  <rect width="320" height="200" rx="16" fill="#2a211a"/>
  <rect x="7" y="7" width="306" height="186" rx="12" fill="#7b5a39" fill-opacity=".08" stroke="#7b5a39" stroke-opacity=".28"/>
  <path d="M 40 0 V 200 M 0 25 H 320" stroke="#4d3d2c" stroke-opacity=".18" stroke-width="1"/>
  <path d="M 80 0 V 200 M 0 50 H 320" stroke="#4d3d2c" stroke-opacity=".18" stroke-width="1"/>
  <path d="M 120 0 V 200 M 0 75 H 320" stroke="#4d3d2c" stroke-opacity=".18" stroke-width="1"/>
  <path d="M 160 0 V 200 M 0 100 H 320" stroke="#4d3d2c" stroke-opacity=".18" stroke-width="1"/>
  <path d="M 200 0 V 200 M 0 125 H 320" stroke="#4d3d2c" stroke-opacity=".18" stroke-width="1"/>
  <path d="M 240 0 V 200 M 0 150 H 320" stroke="#4d3d2c" stroke-opacity=".18" stroke-width="1"/>
  <path d="M 280 0 V 200 M 0 175 H 320" stroke="#4d3d2c" stroke-opacity=".18" stroke-width="1"/>
  <circle cx="52.9" cy="61.3" r="5.8" fill="#c08a5a" fill-opacity=".82" stroke="#0b0e16" stroke-width="1.4"/>
  <circle cx="239.7" cy="65.6" r="4.5" fill="#6d5a45" fill-opacity=".82" stroke="#0b0e16" stroke-width="1.4"/>
  <circle cx="61.5" cy="142.4" r="5.2" fill="#9a7043" fill-opacity=".82" stroke="#0b0e16" stroke-width="1.4"/>
  <circle cx="150.9" cy="96.9" r="5.5" fill="#6aa0b8" fill-opacity=".82" stroke="#0b0e16" stroke-width="1.4"/>
  <circle cx="229.4" cy="137.5" r="5" fill="#9a9488" fill-opacity=".82" stroke="#0b0e16" stroke-width="1.4"/>
  <path d="M 38.3 38.6 L 281.7 38.6 L 281.7 161.4 L 38.3 161.4" fill="none" stroke="#05070b" stroke-opacity=".65" stroke-width="17" stroke-linecap="round" stroke-linejoin="round"/>
  <path d="M 38.3 38.6 L 281.7 38.6 L 281.7 161.4 L 38.3 161.4" fill="none" stroke="#d7c08a" stroke-width="10" stroke-linecap="round" stroke-linejoin="round"/>
  <path d="M 38.3 38.6 L 281.7 38.6 L 281.7 161.4 L 38.3 161.4" fill="none" stroke="#fff1b8" stroke-opacity=".52" stroke-width="3" stroke-linecap="round" stroke-linejoin="round"/>
  <circle cx="38.3" cy="38.6" r="4.2" fill="#f8f3d0" fill-opacity=".95"/>
  <circle cx="281.7" cy="38.6" r="2.7" fill="#f8f3d0" fill-opacity=".55"/>
  <circle cx="281.7" cy="161.4" r="2.7" fill="#f8f3d0" fill-opacity=".55"/>
  <circle cx="38.3" cy="161.4" r="4.2" fill="#f8f3d0" fill-opacity=".95"/>
  <circle cx="38.3" cy="38.6" r="6.2" fill="#6ee0a0" stroke="#0b0e16" stroke-width="1.5"/>
  <circle cx="38.3" cy="161.4" r="6.2" fill="#e85c66" stroke="#0b0e16" stroke-width="1.5"/>
  <text x="14" y="184" fill="#f3f6ff" font-family="Arial, sans-serif" font-size="13" font-weight="700">1. 썩은 갈림길</text>
</svg>
