<svg xmlns="http://www.w3.org/2000/svg" width="512" height="512" viewBox="0 0 512 512">
  <rect width="512" height="512" fill="#1c130b"/>
  <g opacity=".16" fill="none" stroke="#5a4226" stroke-width="2">
    <path d="M0 64h512M0 128h512M0 192h512M0 256h512M0 320h512M0 384h512M0 448h512"/>
    <path d="M64 0v512M128 0v512M192 0v512M256 0v512M320 0v512M384 0v512M448 0v512"/>
  </g>
  <g opacity=".26" fill="#2c1f12" stroke="#4a3622" stroke-width="2">
    <rect x="36" y="34" width="60" height="34" rx="4"/>
    <rect x="156" y="90" width="42" height="76" rx="4"/>
    <rect x="276" y="36" width="90" height="42" rx="4"/>
    <rect x="412" y="112" width="52" height="52" rx="4"/>
    <rect x="62" y="244" width="96" height="46" rx="4"/>
    <rect x="208" y="220" width="44" height="92" rx="4"/>
    <rect x="326" y="260" width="70" height="34" rx="4"/>
    <rect x="438" y="316" width="38" height="92" rx="4"/>
    <rect x="96" y="404" width="76" height="44" rx="4"/>
    <rect x="254" y="424" width="120" height="34" rx="4"/>
  </g>
  <g opacity=".14" fill="#e8b54d">
    <circle cx="118" cy="118" r="2"/>
    <circle cx="362" cy="144" r="2"/>
    <circle cx="218" cy="360" r="2"/>
    <circle cx="474" cy="240" r="2"/>
  </g>
</svg>
